<?xml version="1.0" encoding="UTF-8"?>
<svg width="100px" height="100px" viewBox="0 0 100 100" version="1.1" xmlns="http://www.w3.org/2000/svg" xmlns:xlink="http://www.w3.org/1999/xlink">
    <!-- Generator: Sketch 52.3 (67297) - http://www.bohemiancoding.com/sketch -->
    <title>Avatar / Images / App Types / Web App</title>
    <desc>Created with Sketch.</desc>
    <g id="Avatar-/-Images-/-App-Types-/-Web-App" stroke="none" stroke-width="1" fill="none" fill-rule="evenodd">
        <rect fill="none" x="0" y="0" width="100" height="100"></rect>
        <g id="Group-2">
            <rect id="Rectangle" x="0" y="0" width="100" height="100"></rect>
        </g>
        <g id="webapp" transform="translate(18.750000, 18.750000)" fill-rule="nonzero">
            <path d="M46.5250976,4.22217518 C41.4860418,1.35481558 35.9837213,-0.00494141306 30.5555556,-1.34183604e-05 L30.5555556,20.9889167 C32.3649933,20.9872408 34.199051,21.4403231 35.8787363,22.3961097 C40.9708022,25.2936358 42.7154747,31.7108932 39.7756003,36.7294829 L58.2156158,47.2222222 C67.0353869,32.1663801 61.8013694,12.9146081 46.5250976,4.22217518" id="Fill-49" fill="#16214D"></path>
            <path d="M31.25,0 C13.9911024,0 0,14.0940225 0,31.4798783 C0,37.2148272 1.52271413,42.591401 4.18250868,47.2222222 L22.2276475,36.7272535 C21.3410735,35.1836464 20.8333333,33.3915522 20.8333333,31.4798783 C20.8333333,25.6845931 25.4970342,20.9865856 31.25,20.9865856 C37.0029658,20.9865856 41.6666667,16.2885781 41.6666667,10.4932928 C41.6666667,4.69800749 37.0029658,0 31.25,0" id="Fill-50" fill="#EC5424"></path>
            <path d="M40.2792625,35.8809597 C39.3950722,37.4486979 38.1076153,38.8071431 36.4633556,39.7768696 C31.4786846,42.7165818 25.1047992,40.9720056 22.2268564,35.8802204 C19.3489858,30.7884353 12.9751004,29.043859 7.99042944,31.9835714 C3.0057585,34.9233575 1.29788232,41.4342096 4.17575285,46.5259947 C12.8095092,61.8013503 31.9311654,67.0351529 46.8851782,58.2158682 C51.8179572,55.3067625 55.6807624,51.2317228 58.3333333,46.5284344 L40.2792625,35.8809597 Z" id="Fill-51" fill="#44C7F4"></path>
            <path d="M44.0980918,49.991824 C39.1167188,47.1157874 37.4099725,40.7461961 40.285939,35.7647546 C43.1619779,30.7833853 49.5316463,29.0766403 54.5130193,31.9526047 C59.4943924,34.8286412 61.2011386,41.1983049 58.3251721,46.1796742 C55.4491332,51.1611157 49.0794649,52.8677883 44.0980918,49.991824" id="Fill-52" fill="#16214D"></path>
        </g>
    </g>
</svg>